<svg xmlns="http://www.w3.org/2000/svg" width="1200" height="700" viewBox="0 0 1200 700" role="img" aria-label="Students walking on a modern academic campus">
  <defs>
    <linearGradient id="sky" x1="0" y1="0" x2="1" y2="1">
      <stop offset="0%" stop-color="#e0f2fe"/>
      <stop offset="55%" stop-color="#f8fafc"/>
      <stop offset="100%" stop-color="#eef2ff"/>
    </linearGradient>
    <linearGradient id="glass" x1="0" y1="0" x2="1" y2="1">
      <stop offset="0%" stop-color="#dbeafe"/>
      <stop offset="100%" stop-color="#93c5fd"/>
    </linearGradient>
    <linearGradient id="lawn" x1="0" y1="0" x2="1" y2="0">
      <stop offset="0%" stop-color="#bbf7d0"/>
      <stop offset="100%" stop-color="#86efac"/>
    </linearGradient>
  </defs>
  <rect width="1200" height="700" fill="url(#sky)"/>
  <circle cx="990" cy="120" r="70" fill="#fde68a" opacity="0.9"/>
  <path d="M0 490 C220 420 420 455 620 430 C830 405 970 430 1200 370 L1200 700 L0 700 Z" fill="url(#lawn)"/>
  <path d="M80 420 L280 260 L480 420 Z" fill="#1e293b" opacity="0.10"/>
  <rect x="150" y="300" width="270" height="150" rx="16" fill="#ffffff" stroke="#cbd5e1" stroke-width="6"/>
  <rect x="455" y="210" width="290" height="240" rx="18" fill="#ffffff" stroke="#cbd5e1" stroke-width="6"/>
  <rect x="790" y="270" width="280" height="180" rx="18" fill="#ffffff" stroke="#cbd5e1" stroke-width="6"/>
  <rect x="190" y="335" width="60" height="80" rx="8" fill="url(#glass)"/>
  <rect x="275" y="335" width="60" height="80" rx="8" fill="url(#glass)"/>
  <rect x="500" y="250" width="55" height="160" rx="8" fill="url(#glass)"/>
  <rect x="585" y="250" width="55" height="160" rx="8" fill="url(#glass)"/>
  <rect x="670" y="250" width="55" height="160" rx="8" fill="url(#glass)"/>
  <rect x="840" y="315" width="70" height="90" rx="8" fill="url(#glass)"/>
  <rect x="935" y="315" width="70" height="90" rx="8" fill="url(#glass)"/>
  <path d="M240 555 C390 500 560 500 730 555 C840 590 970 600 1110 570" fill="none" stroke="#f8fafc" stroke-width="54" stroke-linecap="round"/>
  <path d="M240 555 C390 500 560 500 730 555 C840 590 970 600 1110 570" fill="none" stroke="#cbd5e1" stroke-width="4" stroke-linecap="round" opacity="0.55"/>
  <g transform="translate(380 470)">
    <circle cx="38" cy="28" r="22" fill="#0f172a"/>
    <path d="M22 60 C45 40 69 44 84 70 L96 128 L18 128 Z" fill="#2563eb"/>
    <rect x="64" y="48" width="42" height="60" rx="8" fill="#1e293b"/>
  </g>
  <g transform="translate(560 468)">
    <circle cx="35" cy="28" r="22" fill="#7c2d12"/>
    <path d="M18 62 C42 40 68 42 88 72 L98 132 L12 132 Z" fill="#7c3aed"/>
    <rect x="64" y="50" width="48" height="64" rx="8" fill="#334155"/>
  </g>
  <g transform="translate(735 475)">
    <circle cx="33" cy="25" r="21" fill="#111827"/>
    <path d="M16 58 C38 42 66 43 84 69 L94 124 L10 124 Z" fill="#059669"/>
    <rect x="58" y="46" width="42" height="58" rx="8" fill="#1e293b"/>
  </g>
  <text x="84" y="115" font-family="Inter, Arial, sans-serif" font-size="52" font-weight="800" fill="#0f172a">Student Journey</text>
  <text x="88" y="160" font-family="Inter, Arial, sans-serif" font-size="26" font-weight="600" fill="#475569">Explore goals, communities, scholarships, and schools.</text>
</svg>
